HIERARCHY
ROOT Hips
{
	OFFSET 15.585500 22.159004 44.358299
	CHANNELS 6 Xposition Yposition Zposition Zrotation Xrotation Yrotation
	JOINT Chest
	{
		OFFSET -0.128500 0.160400 6.566002
		CHANNELS 6 Xposition Yposition Zposition Zrotation Xrotation Yrotation
		JOINT Chest2
		{
			OFFSET 0.000000 0.000000 3.554802
			CHANNELS 6 Xposition Yposition Zposition Zrotation Xrotation Yrotation
			JOINT Neck
			{
				OFFSET 0.000000 0.000000 8.267998
				CHANNELS 6 Xposition Yposition Zposition Zrotation Xrotation Yrotation
				JOINT Head
				{
					OFFSET 0.000000 0.000002 2.173897
					CHANNELS 6 Xposition Yposition Zposition Zrotation Xrotation Yrotation
					End Site
					{
						OFFSET 0.000000 0.000000 7.718697
					}
				}
			}
			JOINT LeftCollar
			{
				OFFSET 2.057500 0.117599 5.946301
				CHANNELS 6 Xposition Yposition Zposition Zrotation Xrotation Yrotation
				JOINT LeftShoulder
				{
					OFFSET 4.957699 0.000000 0.000000
					CHANNELS 6 Xposition Yposition Zposition Zrotation Xrotation Yrotation
					JOINT LeftElbow
					{
						OFFSET 0.000000 0.000000 -8.465500
						CHANNELS 6 Xposition Yposition Zposition Zrotation Xrotation Yrotation
						JOINT LeftWrist
						{
							OFFSET 0.000000 -0.000002 -14.594898
							CHANNELS 6 Xposition Yposition Zposition Zrotation Xrotation Yrotation
							End Site
							{
								OFFSET 0.000000 0.000000 -2.173901
							}
						}
					}
				}
			}
			JOINT RightCollar
			{
				OFFSET -3.048500 -0.728800 6.604099
				CHANNELS 6 Xposition Yposition Zposition Zrotation Xrotation Yrotation
				JOINT RightShoulder
				{
					OFFSET -3.710299 0.000000 0.000000
					CHANNELS 6 Xposition Yposition Zposition Zrotation Xrotation Yrotation
					JOINT RightElbow
					{
						OFFSET 0.000000 0.000000 -10.450901
						CHANNELS 6 Xposition Yposition Zposition Zrotation Xrotation Yrotation
						JOINT RightWrist
						{
							OFFSET 0.000000 0.000000 -12.539200
							CHANNELS 6 Xposition Yposition Zposition Zrotation Xrotation Yrotation
							End Site
							{
								OFFSET 0.000000 -0.000002 -2.173901
							}
						}
					}
				}
			}
		}
	}
	JOINT LeftHip
	{
		OFFSET 2.442599 -0.601400 -2.767502
		CHANNELS 6 Xposition Yposition Zposition Zrotation Xrotation Yrotation
		JOINT LeftKnee
		{
			OFFSET 0.000000 -0.000002 -17.033703
			CHANNELS 6 Xposition Yposition Zposition Zrotation Xrotation Yrotation
			JOINT LeftAnkle
			{
				OFFSET 0.000000 -0.000002 -19.318800
				CHANNELS 6 Xposition Yposition Zposition Zrotation Xrotation Yrotation
				End Site
				{
					OFFSET 0.000000 -8.281900 0.000000
				}
			}
		}
	}
	JOINT RightHip
	{
		OFFSET -3.126200 -0.601400 -2.283501
		CHANNELS 6 Xposition Yposition Zposition Zrotation Xrotation Yrotation
		JOINT RightKnee
		{
			OFFSET 0.000000 -0.000002 -16.919401
			CHANNELS 6 Xposition Yposition Zposition Zrotation Xrotation Yrotation
			JOINT RightAnkle
			{
				OFFSET 0.000000 -0.000002 -18.035900
				CHANNELS 6 Xposition Yposition Zposition Zrotation Xrotation Yrotation
				End Site
				{
					OFFSET 0.000000 -9.230099 0.000000
				}
			}
		}
	}
}
MOTION
Frames: 10
Frame Time: 0.041667
22.178097 25.255806 43.455700 11.294961 -8.286007 0.874383 -0.128498 0.160396 6.566006 -11.361040 11.243063 1.361185 0.000000 0.000000 3.554796 9.026582 -6.356661 1.144958 0.000002 -0.000000 8.267996 -5.659595 2.023010 0.250045 0.000001 0.000003 2.173892 -0.504755 0.980852 -0.261430 2.057501 0.117598 5.946298 -20.783571 1.741166 2.119803 4.957702 0.000002 -0.000002 -26.089852 -13.845467 -52.667541 -0.000002 -0.000004 -8.465494 -159.540378 -155.377323 -158.840434 0.000001 0.000000 -14.594896 39.033657 -15.917565 1.780299 -3.048500 -0.728801 6.604099 26.777154 -2.994852 -10.477723 -3.710301 0.000000 0.000005 19.868477 -24.960928 60.317039 0.000007 0.000013 -10.450897 -48.205652 -69.216215 -39.769289 0.000002 -0.000001 -12.539197 -140.271663 0.602071 -66.973024 2.442597 -0.601403 -2.767501 -16.529235 1.987093 1.431664 -0.000000 -0.000002 -17.033707 -2.284085 17.839293 13.071009 0.000001 -0.000001 -19.318798 21.208760 20.385876 3.307461 -3.126198 -0.601404 -2.283498 -111.117185 -45.840774 -82.944451 0.000003 -0.000003 -16.919394 109.970116 27.763717 -87.916426 -0.000002 -0.000003 -18.035896 6.702668 47.548242 -119.688574
22.162197 25.241207 43.443104 11.084752 -8.290697 0.853766 -0.128502 0.160400 6.566003 -11.159692 11.246942 1.389028 -0.000000 0.000001 3.554800 8.966256 -6.338042 1.138095 -0.000000 0.000002 8.268003 -5.620415 1.971079 0.254285 0.000005 0.000004 2.173895 -0.820175 1.096408 0.329869 2.057501 0.117602 5.946310 -20.716191 1.724688 2.045577 4.957705 0.000004 0.000004 -26.105516 -13.769287 -52.481620 0.000000 0.000000 -8.465490 -159.688156 -155.047398 -158.525289 0.000005 -0.000003 -14.594891 38.879677 -16.124644 1.685326 -3.048502 -0.728800 6.604106 26.777799 -3.058539 -10.397512 -3.710300 0.000005 0.000001 20.084299 -24.675129 60.016100 0.000005 0.000007 -10.450905 -48.053536 -69.435273 -40.125333 0.000004 0.000002 -12.539200 -139.384627 0.131349 -66.946741 2.442599 -0.601401 -2.767494 -16.293164 1.891870 1.385358 -0.000002 -0.000001 -17.033709 -2.874057 17.972328 13.211684 0.000001 -0.000003 -19.318800 21.571937 20.243931 3.666649 -3.126204 -0.601404 -2.283496 -110.491554 -46.007570 -82.365688 0.000001 0.000002 -16.919394 110.271116 27.397825 -88.913183 -0.000003 -0.000004 -18.035898 5.705205 47.493662 -119.523980
22.147297 25.226208 43.429802 10.846653 -8.290680 0.830052 -0.128501 0.160396 6.566002 -10.927860 11.248055 1.403883 -0.000002 -0.000001 3.554796 8.895222 -6.318000 1.128836 0.000002 0.000002 8.268003 -5.567017 1.913215 0.267175 0.000005 -0.000001 2.173893 -0.780389 1.095299 0.309691 2.057503 0.117601 5.946302 -20.642963 1.702413 1.973937 4.957699 0.000007 -0.000002 -26.102630 -13.692388 -52.291051 0.000003 0.000003 -8.465504 -159.840428 -154.716434 -158.206401 -0.000003 -0.000001 -14.594898 38.800129 -16.125322 1.624198 -3.048499 -0.728796 6.604105 26.779032 -3.123675 -10.295387 -3.710300 0.000003 -0.000003 20.285220 -24.404630 59.685424 0.000004 0.000009 -10.450898 -47.841630 -69.672376 -40.419618 0.000009 0.000006 -12.539196 -138.556835 -0.310454 -66.946495 2.442598 -0.601401 -2.767501 -16.037793 1.783906 1.355740 -0.000004 -0.000001 -17.033710 -3.544103 18.125517 13.342343 0.000003 -0.000001 -19.318798 22.009289 20.120178 4.010143 -3.126201 -0.601404 -2.283504 -109.830425 -46.188034 -81.773695 -0.000002 -0.000001 -16.919399 110.588733 27.054692 -89.889333 -0.000001 -0.000008 -18.035896 4.748526 47.388679 -119.285470
22.133896 25.210905 43.415501 10.581028 -8.282450 0.803399 -0.128499 0.160400 6.565999 -10.665139 11.243479 1.402585 0.000001 0.000001 3.554803 8.813505 -6.296608 1.117312 0.000001 -0.000000 8.267997 -5.497545 1.848196 0.291406 0.000004 0.000002 2.173901 -0.743435 1.098375 0.295323 2.057503 0.117601 5.946298 -20.563615 1.673533 1.908763 4.957703 0.000005 -0.000001 -26.081815 -13.614133 -52.096950 -0.000009 -0.000004 -8.465500 -159.997427 -154.382014 -157.883197 0.000001 0.000005 -14.594898 38.731810 -16.121523 1.561198 -3.048503 -0.728800 6.604094 26.784406 -3.186599 -10.170804 -3.710298 0.000005 0.000003 20.472189 -24.148796 59.328403 0.000007 0.000004 -10.450898 -47.564471 -69.932879 -40.642518 0.000007 0.000007 -12.539192 -137.797769 -0.716585 -66.985100 2.442599 -0.601397 -2.767501 -15.759273 1.657769 1.343754 0.000000 0.000001 -17.033697 -4.295265 18.282308 13.465705 0.000001 -0.000001 -19.318800 22.364094 19.962982 4.347358 -3.126198 -0.601402 -2.283500 -109.139955 -46.377241 -81.175425 -0.000002 -0.000002 -16.919397 110.870916 26.728711 -90.825267 0.000001 -0.000006 -18.035900 3.837964 47.286161 -118.985187
22.122198 25.195505 43.400005 10.288480 -8.263302 0.773752 -0.128502 0.160398 6.566000 -10.371737 11.230696 1.382047 -0.000001 0.000000 3.554811 8.721428 -6.274424 1.103768 -0.000005 0.000004 8.267995 -5.410621 1.774982 0.329223 0.000001 0.000000 2.173898 -0.710124 1.104432 0.287758 2.057499 0.117600 5.946307 -20.477979 1.637519 1.853832 4.957699 0.000005 0.000011 -26.044404 -13.533603 -51.901060 -0.000006 0.000004 -8.465500 -160.157909 -154.043141 -157.554952 -0.000002 -0.000010 -14.594900 38.679085 -16.116306 1.503796 -3.048506 -0.728796 6.604093 26.798008 -3.243049 -10.024989 -3.710300 0.000001 0.000002 20.646443 -23.907510 58.950994 0.000004 0.000012 -10.450901 -47.214632 -70.220724 -40.785105 0.000003 0.000001 -12.539197 -137.115856 -1.079271 -67.080490 2.442599 -0.601401 -2.767506 -15.454003 1.508544 1.349534 -0.000004 -0.000002 -17.033701 -5.127975 18.446850 13.582942 0.000001 -0.000005 -19.318800 23.021402 19.752313 4.614533 -3.126200 -0.601398 -2.283503 -108.426944 -46.569664 -80.576971 0.000001 -0.000004 -16.919399 111.124009 26.421192 -91.723211 -0.000002 -0.000005 -18.035898 2.982035 47.187653 -118.633884
22.112598 25.180302 43.383102 9.958017 -8.238322 0.584247 -0.128499 0.160398 6.566007 -10.066487 11.188522 1.497231 -0.000001 0.000001 3.554808 8.619177 -6.251765 1.088087 -0.000003 0.000002 8.268009 -5.305425 1.692805 0.382533 -0.000000 0.000001 2.173898 -0.681469 1.112669 0.287801 2.057499 0.117599 5.946309 -20.385837 1.593634 1.812412 4.957702 0.000003 0.000000 -25.993239 -13.449245 -51.705512 0.000009 0.000004 -8.465496 -160.318788 -153.699433 -157.220996 0.000003 0.000002 -14.594899 38.645384 -16.112430 1.459925 -3.048506 -0.728799 6.604103 26.823171 -3.289042 -9.860758 -3.710296 0.000005 0.000001 20.811349 -23.678719 58.562247 0.000005 0.000003 -10.450893 -46.818095 -70.527748 -40.872159 0.000004 -0.000004 -12.539193 -136.504281 -1.389471 -67.256401 2.442600 -0.601399 -2.767499 -15.110600 1.299229 1.523539 -0.000006 -0.000003 -17.033703 -6.037282 18.622810 13.696283 -0.000000 -0.000003 -19.318800 23.747514 19.529224 4.867677 -3.126198 -0.601398 -2.283497 -107.727998 -46.909989 -80.041553 0.000001 -0.000004 -16.919397 111.354364 26.132784 -92.585017 -0.000002 -0.000001 -18.035898 2.188084 47.094745 -118.241585
22.105299 25.165504 43.364799 9.612579 -8.192927 0.486599 -0.128497 0.160401 6.566005 -9.722967 11.148290 1.495385 -0.000002 0.000000 3.554807 8.507093 -6.229271 1.070621 0.000002 0.000005 8.267995 -5.181880 1.601155 0.452010 0.000003 0.000007 2.173900 -0.658281 1.121786 0.296152 2.057503 0.117604 5.946297 -20.287986 1.541527 1.788490 4.957702 0.000007 -0.000001 -25.931785 -13.358825 -51.513577 0.000001 0.000005 -8.465496 -160.476620 -153.351926 -156.881509 -0.000000 -0.000002 -14.594895 38.632936 -16.112771 1.437718 -3.048499 -0.728793 6.604099 26.862733 -3.320809 -9.682486 -3.710297 0.000004 0.000004 20.970095 -23.461287 58.172530 0.000002 0.000004 -10.450897 -46.283332 -70.877501 -40.816230 0.000005 0.000009 -12.539193 -136.005910 -1.632823 -67.537354 2.442604 -0.601398 -2.767497 -14.741845 1.081051 1.621102 0.000001 -0.000005 -17.033703 -7.013366 18.813782 13.808552 0.000001 -0.000002 -19.318804 24.527973 19.293239 5.118369 -3.126196 -0.601395 -2.283499 -106.999749 -47.153113 -79.475897 0.000003 -0.000003 -16.919399 111.568067 25.863514 -93.412317 -0.000001 -0.000005 -18.035902 1.461869 47.008640 -117.819274
22.100595 25.151304 43.345303 9.247269 -8.130618 0.380337 -0.128498 0.160398 6.566006 -9.355858 11.096488 1.477059 -0.000000 0.000003 3.554799 8.385889 -6.207310 1.051518 0.000001 0.000004 8.267999 -5.041387 1.500265 0.538151 0.000000 0.000005 2.173900 -0.640860 1.131189 0.312812 2.057504 0.117604 5.946301 -20.185330 1.480783 1.783999 4.957702 0.000002 0.000002 -25.864323 -13.260084 -51.327984 -0.000005 -0.000008 -8.465500 -160.626679 -153.001879 -156.536229 0.000000 -0.000002 -14.594891 38.641689 -16.120034 1.444292 -3.048501 -0.728797 6.604098 26.918737 -3.335361 -9.494039 -3.710300 0.000004 0.000004 21.125497 -23.254059 57.791767 -0.000002 0.000006 -10.450902 -45.652612 -71.252568 -40.662766 0.000004 -0.000003 -12.539196 -135.602573 -1.795425 -67.953948 2.442601 -0.601397 -2.767500 -14.341618 0.830954 1.736800 0.000001 -0.000001 -17.033701 -8.034871 19.019087 13.882406 -0.000000 -0.000001 -19.318800 25.031199 19.114665 5.466909 -3.126199 -0.601402 -2.283502 -106.268577 -47.390506 -78.920766 0.000000 0.000001 -16.919399 111.771032 25.613052 -94.206491 -0.000001 -0.000005 -18.035900 0.807189 46.929977 -117.378112
22.098597 25.138006 43.324699 8.865977 -8.051041 0.264547 -0.128502 0.160402 6.566006 -8.969018 11.033660 1.444020 0.000001 0.000002 3.554807 8.256200 -6.186328 1.031122 0.000003 0.000001 8.268002 -4.886214 1.390644 0.640798 0.000002 0.000002 2.173892 -0.628487 1.140094 0.336760 2.057508 0.117601 5.946305 -20.080188 1.411722 1.801187 4.957699 0.000004 0.000002 -25.794390 -13.151013 -51.151601 0.000000 0.000002 -8.465494 -160.764621 -152.650999 -156.185731 0.000005 -0.000003 -14.594903 38.671633 -16.136341 1.486329 -3.048497 -0.728800 6.604105 26.992539 -3.329878 -9.301893 -3.710294 -0.000002 0.000002 21.281478 -23.054305 57.431789 0.000000 0.000006 -10.450891 -44.908784 -71.651082 -40.398096 0.000011 -0.000001 -12.539199 -135.300802 -1.859197 -68.535464 2.442597 -0.601393 -2.767498 -13.911082 0.549171 1.869105 -0.000004 -0.000001 -17.033707 -9.093714 19.246058 13.999444 -0.000001 -0.000005 -19.318798 25.726404 18.878653 5.762733 -3.126200 -0.601399 -2.283501 -105.539844 -47.619539 -78.376503 0.000002 0.000000 -16.919399 111.968247 25.380199 -94.968610 0.000002 -0.000006 -18.035902 0.225558 46.858711 -116.928659
22.099499 25.125904 43.303505 8.473189 -7.954449 0.138817 -0.128501 0.160397 6.566002 -8.567429 10.960749 1.398799 -0.000001 -0.000001 3.554804 8.118939 -6.166688 1.009588 -0.000001 0.000003 8.268000 -4.719109 1.273790 0.758778 0.000002 0.000001 2.173894 -0.621146 1.148009 0.367194 2.057503 0.117603 5.946302 -19.974888 1.334661 1.840584 4.957701 0.000005 -0.000000 -25.726030 -13.028860 -50.987489 0.000003 -0.000000 -8.465492 -160.885475 -152.301225 -155.830479 0.000002 -0.000004 -14.594892 38.720961 -16.163638 1.568652 -3.048502 -0.728800 6.604101 27.084480 -3.302778 -9.110931 -3.710299 0.000000 -0.000007 21.440722 -22.860833 57.101358 0.000006 0.000009 -10.450901 -44.045656 -72.067764 -40.020182 0.000006 0.000001 -12.539197 -135.099612 -1.804480 -69.308675 2.442602 -0.601405 -2.767496 -13.452219 0.237563 2.015947 0.000003 0.000000 -17.033707 -10.162232 19.493968 14.121992 0.000000 -0.000003 -19.318800 26.408167 18.634728 6.072376 -3.126201 -0.601405 -2.283501 -104.818228 -47.837928 -77.842348 -0.000000 -0.000009 -16.919397 112.164513 25.163662 -95.699925 -0.000001 -0.000004 -18.035900 -0.283204 46.794562 -116.481104
